<svg width="40" height="40" viewBox="0 0 40 40" fill="none" xmlns="http://www.w3.org/2000/svg">
<rect width="40" height="40" rx="20" fill="black"/>
<path d="M30 20C30 14.48 25.52 10 20 10C14.48 10 10 14.48 10 20C10 25.52 14.48 30 20 30" stroke="#FEFEFF" stroke-opacity="0.8" stroke-width="1.5" stroke-linecap="round" stroke-linejoin="round"/>
<path d="M16.0016 11H17.0016C15.0516 16.84 15.0516 23.16 17.0016 29H16.0016" stroke="#FEFEFF" stroke-opacity="0.8" stroke-width="1.5" stroke-linecap="round" stroke-linejoin="round"/>
<path d="M23 11C23.97 13.92 24.46 16.96 24.46 20" stroke="#FEFEFF" stroke-opacity="0.8" stroke-width="1.5" stroke-linecap="round" stroke-linejoin="round"/>
<path d="M11 24V23C13.92 23.97 16.96 24.46 20 24.46" stroke="#FEFEFF" stroke-opacity="0.8" stroke-width="1.5" stroke-linecap="round" stroke-linejoin="round"/>
<path d="M11 16.9996C16.84 15.0496 23.16 15.0496 29 16.9996" stroke="#FEFEFF" stroke-opacity="0.8" stroke-width="1.5" stroke-linecap="round" stroke-linejoin="round"/>
<path d="M26.2 29.4C27.9673 29.4 29.4 27.9673 29.4 26.2C29.4 24.4327 27.9673 23 26.2 23C24.4327 23 23 24.4327 23 26.2C23 27.9673 24.4327 29.4 26.2 29.4Z" stroke="#FEFEFF" stroke-opacity="0.8" stroke-width="1.5" stroke-linecap="round" stroke-linejoin="round"/>
<path d="M30 30L29 29" stroke="#FEFEFF" stroke-opacity="0.8" stroke-width="1.5" stroke-linecap="round" stroke-linejoin="round"/>
</svg>
