<svg width="40" height="40" viewBox="0 0 40 40" fill="none" xmlns="http://www.w3.org/2000/svg">
<rect width="40" height="40" rx="20" fill="#FFFCF5"/>
<path d="M22.55 30.42C22.22 30.42 21.91 30.2 21.82 29.86C21.72 29.46 21.95 29.05 22.35 28.94C26.41 27.87 29.24 24.19 29.24 19.99C29.24 14.89 25.09 10.74 19.99 10.74C15.66 10.74 12.82 13.27 11.49 14.8H14.43C14.84 14.8 15.18 15.14 15.18 15.55C15.18 15.96 14.86 16.31 14.44 16.31H10.01C9.94 16.31 9.87 16.3 9.8 16.28C9.71 16.25 9.63 16.21 9.56 16.16C9.47 16.1 9.4 16.02 9.35 15.93C9.3 15.83 9.26 15.73 9.25 15.62C9.25 15.59 9.25 15.57 9.25 15.54V11C9.25 10.59 9.59 10.25 10 10.25C10.41 10.25 10.75 10.59 10.75 11V13.39C12.38 11.64 15.45 9.25 20 9.25C25.93 9.25 30.75 14.07 30.75 20C30.75 24.88 27.46 29.16 22.74 30.4C22.68 30.41 22.61 30.42 22.55 30.42Z" fill="#1A1A1A" fill-opacity="0.8"/>
<path d="M19.29 30.73C19.27 30.73 19.24 30.73 19.22 30.72C18.15 30.65 17.1 30.41 16.1 30.02C15.81 29.91 15.62 29.62 15.62 29.31C15.62 29.22 15.64 29.13 15.67 29.05C15.82 28.67 16.26 28.47 16.64 28.62C17.5 28.96 18.41 29.16 19.33 29.23H19.34C19.74 29.25 20.04 29.59 20.04 29.99C20.04 30 20.04 30.02 20.04 30.03C20.01 30.42 19.68 30.73 19.29 30.73ZM13.78 28.58C13.61 28.58 13.45 28.53 13.31 28.42C12.47 27.75 11.74 26.96 11.13 26.07C11.04 25.94 10.99 25.8 10.99 25.65C10.99 25.4 11.11 25.17 11.32 25.03C11.65 24.8 12.14 24.89 12.36 25.22C12.89 25.99 13.52 26.67 14.25 27.24C14.42 27.38 14.53 27.59 14.53 27.82C14.53 27.99 14.48 28.16 14.37 28.3C14.23 28.48 14.01 28.58 13.78 28.58ZM10.44 23.7C10.11 23.7 9.82 23.49 9.73 23.18C9.41 22.15 9.25 21.08 9.25 20C9.25 19.59 9.59 19.25 10 19.25C10.41 19.25 10.75 19.59 10.75 20C10.75 20.93 10.89 21.85 11.16 22.73C11.18 22.8 11.19 22.88 11.19 22.96C11.19 23.29 10.98 23.57 10.67 23.67C10.59 23.69 10.52 23.7 10.44 23.7Z" fill="#1A1A1A" fill-opacity="0.8"/>
<path d="M23.08 23.67L19.98 21.82C19.44 21.5 19 20.73 19 20.1V16" stroke="#1A1A1A" stroke-opacity="0.8" stroke-width="1.5" stroke-linecap="round" stroke-linejoin="round"/>
</svg>
