<svg width="40" height="40" viewBox="0 0 40 40" fill="none" xmlns="http://www.w3.org/2000/svg">
<rect width="40" height="40" rx="20" fill="#FFFCF5"/>
<path d="M18.7509 10.4503C19.4409 9.86031 20.5708 9.86031 21.2708 10.4503L22.8509 11.8104C23.1509 12.0704 23.7108 12.2804 24.1108 12.2804H25.8109C26.8709 12.2804 27.7408 13.1503 27.7408 14.2103V15.9104C27.7408 16.3004 27.9508 16.8704 28.2108 17.1704L29.5709 18.7504C30.1609 19.4404 30.1609 20.5704 29.5709 21.2704L28.2108 22.8503C27.9508 23.1503 27.7408 23.7103 27.7408 24.1103V25.8104C27.7408 26.8704 26.8709 27.7404 25.8109 27.7404H24.1108C23.7208 27.7404 23.1509 27.9503 22.8509 28.2103L21.2708 29.5703C20.5808 30.1603 19.4509 30.1603 18.7509 29.5703L17.1709 28.2103C16.8709 27.9503 16.3109 27.7404 15.9109 27.7404H14.1808C13.1208 27.7404 12.2509 26.8704 12.2509 25.8104V24.1003C12.2509 23.7103 12.0409 23.1503 11.7909 22.8503L10.4409 21.2604C9.86086 20.5704 9.86086 19.4504 10.4409 18.7604L11.7909 17.1704C12.0409 16.8704 12.2509 16.3104 12.2509 15.9204V14.2103C12.2509 13.1503 13.1208 12.2804 14.1808 12.2804H15.9109C16.3009 12.2804 16.8709 12.0704 17.1709 11.8104L18.7509 10.4503Z" stroke="#1A1A1A" stroke-opacity="0.8" stroke-width="1.5" stroke-linecap="round" stroke-linejoin="round"/>
<path d="M19.9995 24.5563C20.0195 26.2063 21.2495 26.6063 22.3995 26.1463C24.7695 25.1963 26.4395 22.8763 26.4395 20.1663C26.4395 17.4563 24.7695 15.1363 22.3995 14.1763C21.2495 13.7163 20.0195 14.1263 19.9995 15.7663V24.5563Z" fill="#1A1A1A" fill-opacity="0.8"/>
</svg>
