<svg width="40" height="40" viewBox="0 0 40 40" fill="none" xmlns="http://www.w3.org/2000/svg">
<rect width="40" height="40" rx="20" fill="black"/>
<path d="M18.7489 10.4503C19.4389 9.86031 20.5689 9.86031 21.2689 10.4503L22.8489 11.8104C23.1489 12.0704 23.7089 12.2804 24.1089 12.2804H25.8089C26.8689 12.2804 27.7389 13.1503 27.7389 14.2103V15.9104C27.7389 16.3004 27.9489 16.8704 28.2089 17.1704L29.5689 18.7504C30.1589 19.4404 30.1589 20.5704 29.5689 21.2704L28.2089 22.8503C27.9489 23.1503 27.7389 23.7103 27.7389 24.1103V25.8104C27.7389 26.8704 26.8689 27.7404 25.8089 27.7404H24.1089C23.7189 27.7404 23.1489 27.9503 22.8489 28.2103L21.2689 29.5703C20.5789 30.1603 19.4489 30.1603 18.7489 29.5703L17.1689 28.2103C16.8689 27.9503 16.3089 27.7404 15.9089 27.7404H14.1789C13.1189 27.7404 12.2489 26.8704 12.2489 25.8104V24.1003C12.2489 23.7103 12.0389 23.1503 11.7889 22.8503L10.4389 21.2604C9.85891 20.5704 9.85891 19.4504 10.4389 18.7604L11.7889 17.1704C12.0389 16.8704 12.2489 16.3104 12.2489 15.9204V14.2103C12.2489 13.1503 13.1189 12.2804 14.1789 12.2804H15.9089C16.2989 12.2804 16.8689 12.0704 17.1689 11.8104L18.7489 10.4503Z" stroke="#FEFEFF" stroke-opacity="0.8" stroke-width="1.5" stroke-linecap="round" stroke-linejoin="round"/>
<path d="M20.0014 24.5563C20.0214 26.2063 21.2514 26.6063 22.4014 26.1463C24.7714 25.1963 26.4414 22.8763 26.4414 20.1663C26.4414 17.4563 24.7714 15.1363 22.4014 14.1763C21.2514 13.7163 20.0214 14.1263 20.0014 15.7663V24.5563Z" fill="#FEFEFF" fill-opacity="0.8"/>
</svg>
