<svg width="40" height="40" viewBox="0 0 40 40" fill="none" xmlns="http://www.w3.org/2000/svg">
<rect width="40" height="40" rx="20" fill="#FFFCF5"/>
<path d="M26 26.8597H25.24C24.44 26.8597 23.68 27.1697 23.12 27.7297L21.41 29.4197C20.63 30.1897 19.36 30.1897 18.58 29.4197L16.87 27.7297C16.31 27.1697 15.54 26.8597 14.75 26.8597H14C12.34 26.8597 11 25.5298 11 23.8898V12.9797C11 11.3397 12.34 10.0098 14 10.0098H26C27.66 10.0098 29 11.3397 29 12.9797V23.8898C29 25.5198 27.66 26.8597 26 26.8597Z" stroke="#1A1A1A" stroke-opacity="0.8" stroke-width="1.5" stroke-miterlimit="10" stroke-linecap="round" stroke-linejoin="round"/>
<path d="M20.28 22.96C20.13 23.01 19.88 23.01 19.72 22.96C18.42 22.51 15.5 20.66 15.5 17.51C15.5 16.12 16.62 15 18 15C18.82 15 19.54 15.39 20 16C20.46 15.39 21.18 15 22 15C23.38 15 24.5 16.12 24.5 17.51C24.49 20.66 21.58 22.51 20.28 22.96Z" stroke="#1A1A1A" stroke-opacity="0.8" stroke-width="1.5" stroke-linecap="round" stroke-linejoin="round"/>
</svg>
