<svg width="55" height="38" viewBox="0 0 55 38" fill="none" xmlns="http://www.w3.org/2000/svg">
<rect width="55" height="38" rx="4" fill="#006FCF"/>
<path d="M21.04 20.7847L22.0195 19.6265H54.1113V26.9097C54.0916 26.9221 53.2608 27.441 52.3018 27.4487H34.5312L33.4619 26.2153V27.4487H29.957V25.3442C29.9391 25.355 29.4586 25.6372 28.4434 25.6372H27.251V27.4487H21.9443L20.9971 26.2651L20.0352 27.4487H11.25V19.6265H20.0908L21.04 20.7847ZM24.5879 26.4478H26.1885V24.5981H27.8301C29.2191 24.5981 30.2725 23.9057 30.2725 22.5601C30.2722 21.4457 29.4462 20.5905 28.0332 20.5903H24.5879V26.4478ZM12.3164 26.4468H17.4053V25.1753H13.8926V24.1343H17.3232V22.9019H13.8926V21.8999H17.4053V20.5894H12.3164V26.4468ZM20.0811 23.5542L17.6035 26.4468H19.54L20.9707 24.6431L22.4385 26.4468H24.4023L21.9199 23.5181L24.4238 20.5894H22.5361L21.0195 22.4224L19.5088 20.5894H17.5439L20.0811 23.5542ZM30.9492 26.4468H32.5088V24.3657H33.165L35.0352 26.4468H36.9414L34.8896 24.2886C35.7316 24.2216 36.5996 23.5432 36.5996 22.4897C36.5996 21.2573 35.5698 20.5894 34.4199 20.5894H30.9492V26.4468ZM37.2529 26.4468H42.3428V25.1753H38.8291V24.1343H42.2441V22.9019H38.8291V21.8999H42.3428V20.5894H37.2529V26.4468ZM45.3135 20.5894C43.492 20.5894 42.8663 21.495 42.8662 22.4341C42.8662 23.4871 43.5494 24.189 44.7754 24.189H46.1855C46.648 24.189 46.8477 24.4378 46.8477 24.6841C46.8476 24.941 46.6473 25.1753 46.1855 25.1753H43.0645V26.4468H46.3887C47.7618 26.4467 48.4229 25.6073 48.4229 24.5825C48.4228 23.6294 47.8294 22.9019 46.4629 22.9019H44.9854C44.6018 22.9018 44.4112 22.6339 44.4111 22.3911C44.4111 22.1549 44.5653 21.9077 45.0674 21.9077H47.6943L48.3506 20.5894H45.3135ZM50.8096 20.5894C48.9879 20.5894 48.3624 21.495 48.3623 22.4341C48.3623 23.487 49.0447 24.1888 50.2705 24.189H51.6816C52.1438 24.1891 52.3428 24.4379 52.3428 24.6841C52.3427 24.9409 52.1431 25.1752 51.6816 25.1753H48.5605V26.4468H51.8838C53.2571 26.4468 53.918 25.6073 53.918 24.5825C53.9179 23.6294 53.3246 22.9019 51.958 22.9019H50.4805C50.0972 22.9017 49.9063 22.6338 49.9062 22.3911C49.9062 22.1549 50.0607 21.9078 50.5625 21.9077H53.1895L53.8457 20.5894H50.8096ZM27.917 21.9146C28.3657 21.9146 28.6865 22.1733 28.6865 22.5894C28.6865 22.9803 28.3676 23.2642 27.9121 23.2642H26.1885V21.9146H27.917ZM34.292 21.8999C34.7193 21.9001 35.0302 22.2138 35.0303 22.5161C35.0303 22.9053 34.627 23.1323 34.3145 23.1323H32.5088V21.8999H34.292ZM7.50684 11.8149V9.37549H11.7832L12.4551 11.1382L13.1064 9.37549H32.3037V10.2622C32.3037 10.2622 33.3132 9.37549 34.9717 9.37549L41.2002 9.396L42.3096 11.8032V9.37549H45.8887L46.873 10.7583V9.37549H50.4854V17.1987H46.873L45.9297 15.811V17.1987H40.6709L40.1426 15.9653H38.7285L38.209 17.1987H34.6426C33.2157 17.1986 32.3037 16.3296 32.3037 16.3296V17.1987H26.9277L25.8604 15.9653V17.1987H5.86816L5.33984 15.9653H3.93066L3.40625 17.1987H0.948242V13.73L2.9375 9.37549H6.37793L7.50684 11.8149ZM0.958984 16.1978H2.70605L3.20117 15.0249H6.0791L6.57129 16.1978H8.35645L5.67578 10.3403H3.6416L0.958984 16.1978ZM23.3975 16.1978H24.957V14.1167H25.6133L27.4834 16.1978H29.3896L27.3379 14.0396C28.1798 13.9726 29.0476 13.2939 29.0479 12.2407C29.0479 11.0082 28.018 10.3404 26.8682 10.3403H23.3975V16.1978ZM35.7637 16.1978H37.5107L38.0059 15.0249H40.8838L41.376 16.1978H43.1611L40.4805 10.3403H38.4463L35.7637 16.1978ZM12.4668 14.1245L11.0234 10.3472L8.54102 10.3394V16.1968H10.1006V11.8804L11.7578 16.1968H13.126L14.7793 11.8804V16.1968H16.3389V10.3394H13.876L12.4668 14.1245ZM17.4053 16.1968H22.4951V14.9243H18.9814V13.8843H22.4131V12.6509H18.9814V11.6489H22.4951V10.3394H17.4053V16.1968ZM29.6855 16.1968H31.2773V10.3394H29.6855V16.1968ZM35.1357 10.3394C33.0356 10.3394 32.0372 11.5758 32.0371 13.2915C32.0371 14.9659 33.0469 16.1968 34.71 16.1968H35.0537L35.71 14.9165H35.2998C34.3066 14.9165 33.6172 14.4405 33.6172 13.3062C33.6172 12.351 34.2198 11.7262 35.0723 11.7261H36.8594V10.3394H35.1357ZM43.3438 16.1968H44.9033V12.4194L47.499 16.1968H49.418V10.3394H47.8584V14.019L45.3262 10.3394H43.3438V16.1968ZM5.51172 13.7534H3.75488L4.63477 11.7036L5.51172 13.7534ZM40.3164 13.7534H38.5596L39.4395 11.7036L40.3164 13.7534ZM26.7402 11.6509C27.1676 11.6511 27.4785 11.9647 27.4785 12.2671C27.4782 12.656 27.0752 12.8833 26.7627 12.8833H24.957V11.6509H26.7402Z" fill="white"/>
</svg>
