<svg width="55" height="38" viewBox="0 0 55 38" fill="none" xmlns="http://www.w3.org/2000/svg">
<rect x="0.5" y="0.5" width="54" height="37" rx="3.5" fill="white" stroke="#F3F3F3"/>
<path d="M36.3525 20.6562L38.4814 15.3545H40.1465L36.7432 23.4502H35.916L32.5732 15.3545H34.252L36.3525 20.6562ZM15.0117 15.2236C15.8756 15.2236 16.6663 15.5196 17.3271 16.0986L16.5225 17.1533C16.1223 16.704 15.7434 16.5146 15.2832 16.5146C14.621 16.5148 14.1387 16.8927 14.1387 17.3896C14.1388 17.816 14.41 18.0411 15.332 18.3828C17.0799 19.0234 17.5977 19.5916 17.5977 20.8457C17.5975 22.3732 16.4774 23.4373 14.8809 23.4375C13.7114 23.4375 12.8603 22.9759 12.1523 21.9346L13.1455 20.9766C13.4991 21.6619 14.0895 22.0292 14.8223 22.0293C15.508 22.0293 16.0156 21.5555 16.0156 20.916C16.0156 20.5846 15.8618 20.3005 15.5547 20.0996C15.4004 20.0045 15.0947 19.8622 14.4932 19.6494C13.0498 19.1292 12.5547 18.5727 12.5547 17.4854C12.5547 16.1936 13.6176 15.2236 15.0117 15.2236ZM22.2773 15.1758C22.9387 15.1758 23.4935 15.3174 24.168 15.6602V17.4717C23.5291 16.8457 22.9741 16.584 22.2412 16.584C20.7996 16.584 19.666 17.7797 19.666 19.2949C19.6662 20.8932 20.7648 22.0176 22.3125 22.0176C23.0092 22.0176 23.5538 21.7692 24.168 21.1533V22.9648C23.4695 23.2944 22.9026 23.4248 22.2412 23.4248C19.9013 23.4248 18.0823 21.6264 18.082 19.3066C18.082 17.0117 19.9491 15.1758 22.2773 15.1758ZM5.10059 15.3545C7.59286 15.3545 9.33008 16.9772 9.33008 19.3066C9.32997 20.468 8.79817 21.591 7.89941 22.3359C7.14311 22.9652 6.28185 23.247 5.08887 23.2471H2.84473V15.3545H5.10059ZM11.5742 23.2471H10.0371V15.3545H11.5742V23.2471ZM45.2002 16.6914H42.377V18.4434H45.0967V19.7803H42.377V21.9111H45.2002V23.2471H40.8418V15.3545H45.2002V16.6914ZM48.4971 15.3545C50.269 15.3546 51.2852 16.2069 51.2852 17.6846C51.2851 18.8928 50.6475 19.6861 49.4902 19.9219L51.9707 23.2471H50.0801L47.9531 20.0762H47.7529V23.2471H46.2178V15.3545H48.4971ZM4.37988 21.9111H4.79297C5.78577 21.9111 6.41278 21.7202 6.89551 21.2832C7.42691 20.8094 7.74701 20.0526 7.74707 19.2949C7.74707 18.539 7.42696 17.804 6.89551 17.3301C6.38815 16.8697 5.7857 16.6914 4.79297 16.6914H4.37988V21.9111ZM47.7529 16.5977V18.9883H48.2021C49.1834 18.9882 49.703 18.5607 49.7031 17.7676C49.7031 16.9996 49.1836 16.5978 48.2266 16.5977H47.7529Z" fill="#1D1D1B"/>
<path fill-rule="evenodd" clip-rule="evenodd" d="M32.3914 21.5904C33.6387 19.6365 33.069 17.0407 31.1189 15.7913C29.1687 14.5418 26.5772 15.1122 25.3298 17.0662C24.0828 19.0196 24.6527 21.6162 26.6028 22.8657C28.553 24.1151 31.1444 23.5439 32.3914 21.5904Z" fill="url(#paint0_linear_2369_38211)"/>
<defs>
<linearGradient id="paint0_linear_2369_38211" x1="34.6494" y1="18.0532" x2="27.5804" y2="13.5406" gradientUnits="userSpaceOnUse">
<stop stop-color="#F6A000"/>
<stop offset="0.623918" stop-color="#E47E02"/>
<stop offset="1" stop-color="#D36002"/>
</linearGradient>
</defs>
</svg>
