<svg width="55" height="38" viewBox="0 0 55 38" fill="none" xmlns="http://www.w3.org/2000/svg">
<rect x="0.5" y="0.5" width="54" height="37" rx="3.5" fill="white" stroke="#F3F3F3"/>
<path d="M41.6719 32.2227C42.0733 32.2227 42.3688 32.064 42.5635 31.8115V32.1523H43.1787V28.2187H42.5635V29.6865C42.3688 29.434 42.0733 29.2754 41.6719 29.2754C40.8804 29.2755 40.2598 29.8924 40.2598 30.749C40.2598 31.6063 40.8804 32.2225 41.6719 32.2227ZM25.2227 32.2227C25.489 32.2227 25.7965 32.1409 25.9912 32.0059L25.8135 31.4824C25.6304 31.5878 25.43 31.6415 25.2705 31.6416C24.9637 31.6416 24.8633 31.4533 24.8633 31.1719V29.9033H25.8672V29.3457H24.8633V28.4951H24.2422V29.3457H23.6699V29.9033H24.2422V31.1836C24.2422 31.8346 24.4968 32.2226 25.2227 32.2227ZM12.832 30.5967C12.832 30.1095 13.1036 29.8506 13.5234 29.8506C13.931 29.8506 14.1367 30.1151 14.1367 30.5908V32.1523H14.7578V30.5967C14.7578 30.1097 15.0408 29.8507 15.4482 29.8506C15.8674 29.8506 16.0684 30.1151 16.0684 30.5908V32.1523H16.6895V30.3906C16.6893 29.7276 16.2635 29.2814 15.5781 29.2754C15.218 29.2694 14.8461 29.3809 14.5859 29.7744C14.3913 29.4635 14.0844 29.2754 13.6533 29.2754C13.3518 29.2754 13.0567 29.3638 12.8262 29.6924V29.3457H12.2119V32.1523H12.832V30.5967ZM18.6445 32.2227C19.0459 32.2225 19.3415 32.0641 19.5361 31.8115V32.1523H20.1494V29.3457H19.5361V29.6865C19.3415 29.434 19.0459 29.2755 18.6445 29.2754C17.8529 29.2754 17.2324 29.8923 17.2324 30.749C17.2324 31.6064 17.8529 32.2227 18.6445 32.2227ZM21.9688 32.2227C22.7839 32.2226 23.2568 31.8408 23.2568 31.3066C23.2568 30.8136 22.8847 30.5558 22.2705 30.4678L21.9805 30.4258C21.715 30.3908 21.502 30.3384 21.502 30.1504C21.502 29.9448 21.7034 29.8223 22.04 29.8223C22.4002 29.8224 22.749 29.957 22.9199 30.0625L23.1855 29.5693C22.8901 29.3758 22.483 29.2754 22.0342 29.2754C21.319 29.2754 20.8584 29.6162 20.8584 30.1738C20.8584 30.6314 21.2016 30.9139 21.833 31.002L22.123 31.043C22.4592 31.09 22.6179 31.1777 22.6182 31.3359C22.6182 31.553 22.3937 31.6768 21.9746 31.6768C21.5498 31.6767 21.243 31.5422 21.0361 31.3838L20.7461 31.8584C21.0827 32.105 21.5084 32.2227 21.9688 32.2227ZM27.8223 32.2227C28.2474 32.2226 28.6368 32.1167 28.9795 31.8291L28.6787 31.377C28.4421 31.5644 28.1406 31.6709 27.8574 31.6709C27.462 31.6709 27.1013 31.4887 27.0127 30.9834L29.1094 30.9834C29.1155 30.9075 29.1211 30.8309 29.1211 30.749C29.115 29.8743 28.572 29.2755 27.7812 29.2754C26.9538 29.2754 26.375 29.8742 26.375 30.749C26.375 31.6414 26.9773 32.2227 27.8223 32.2227ZM30.3672 30.5791C30.3672 30.1148 30.5682 29.8564 30.9697 29.8564C31.0941 29.8565 31.2237 29.8747 31.3535 29.9277L31.543 29.3525C31.4071 29.2995 31.2299 29.2754 31.1055 29.2754C30.7514 29.2754 30.5211 29.4401 30.3623 29.6865V29.3457H29.7539V32.1523H30.3672V30.5791ZM33.2324 32.2227C33.6575 32.2226 33.9412 32.1282 34.248 31.8877L33.9531 31.3945C33.7226 31.5592 33.4802 31.6475 33.2139 31.6475C32.7238 31.6414 32.3633 31.2892 32.3633 30.749C32.3633 30.2088 32.7238 29.8567 33.2139 29.8506C33.4802 29.8506 33.7226 29.9389 33.9531 30.1035L34.248 29.6104C33.9412 29.3698 33.6575 29.2754 33.2324 29.2754C32.3225 29.2754 31.7266 29.8977 31.7266 30.749L31.7334 30.9062C31.8024 31.6759 32.3795 32.2227 33.2324 32.2227ZM35.9727 32.2227C36.3741 32.2227 36.6689 32.0641 36.8643 31.8115V32.1523H37.4785V29.3457H36.8643V29.6865C36.6689 29.434 36.3741 29.2754 35.9727 29.2754C35.1811 29.2755 34.5606 29.8924 34.5605 30.749C34.5605 31.6064 35.1811 32.2226 35.9727 32.2227ZM38.9014 30.5791C38.9014 30.1149 39.1025 29.8565 39.5039 29.8564C39.6282 29.8564 39.758 29.8747 39.8877 29.9277L40.0771 29.3525C39.9413 29.2995 39.764 29.2754 39.6396 29.2754C39.2856 29.2755 39.055 29.44 38.8955 29.6865V29.3457H38.2871V32.1523H38.9014V30.5791ZM27.0186 30.5029C27.0841 30.0978 27.3313 29.8224 27.7686 29.8223C28.164 29.8223 28.4185 30.0689 28.4834 30.5029L27.0186 30.5029ZM18.7207 31.6475C18.1894 31.6475 17.8643 31.2422 17.8643 30.749C17.8643 30.2558 18.1894 29.8506 18.7207 29.8506C19.2283 29.8507 19.5713 30.2384 19.5713 30.749C19.5713 31.2596 19.2283 31.6474 18.7207 31.6475ZM36.0488 31.6475C35.5177 31.6473 35.1924 31.2421 35.1924 30.749C35.1924 30.2559 35.5177 29.8508 36.0488 29.8506C36.5565 29.8506 36.8994 30.2384 36.8994 30.749C36.8994 31.2597 36.5565 31.6475 36.0488 31.6475ZM41.749 31.6475C41.2177 31.6475 40.8916 31.2422 40.8916 30.749C40.8916 30.2558 41.2177 29.8506 41.749 29.8506C42.2571 29.8508 42.5986 30.2385 42.5986 30.749C42.5986 31.2595 42.2571 31.6472 41.749 31.6475Z" fill="#231F20"/>
<path d="M32.2856 24.5781H22.9824V7.95947H32.2856V24.5781Z" fill="#FF5F00"/>
<path d="M23.5722 16.2693C23.5722 12.8982 25.1601 9.89524 27.6329 7.96004C25.8246 6.54492 23.5424 5.70028 21.0622 5.70028C15.1904 5.70028 10.4307 10.4321 10.4307 16.2693C10.4307 22.1065 15.1904 26.8384 21.0622 26.8384C23.5424 26.8384 25.8246 25.9937 27.6329 24.5786C25.1601 22.6434 23.5722 19.6405 23.5722 16.2693Z" fill="#EB001B"/>
<path d="M44.8357 16.2693C44.8357 22.1065 40.076 26.8384 34.2042 26.8384C31.724 26.8384 29.4418 25.9937 27.6328 24.5786C30.1063 22.6434 31.6942 19.6405 31.6942 16.2693C31.6942 12.8982 30.1063 9.89524 27.6328 7.96004C29.4418 6.54492 31.724 5.70028 34.2042 5.70028C40.076 5.70028 44.8357 10.4321 44.8357 16.2693Z" fill="#F79E1B"/>
</svg>
