<svg width="55" height="38" viewBox="0 0 55 38" fill="none" xmlns="http://www.w3.org/2000/svg">
<rect x="0.5" y="0.5" width="54" height="37" rx="3.5" fill="white" stroke="#F3F3F3"/>
<path d="M24.4196 26.0614H20.7578L23.0481 12.7607H26.7097L24.4196 26.0614Z" fill="#15195A"/>
<path d="M37.6932 13.0863C36.971 12.8172 35.8254 12.52 34.4089 12.52C30.7928 12.52 28.2464 14.3311 28.2308 16.9204C28.2008 18.8307 30.054 19.8918 31.44 20.5287C32.8567 21.1796 33.3383 21.6045 33.3383 22.1847C33.3238 23.0757 32.1935 23.4864 31.1393 23.4864C29.6773 23.4864 28.894 23.2747 27.7036 22.7789L27.2214 22.5664L26.709 25.5521C27.5678 25.9196 29.1501 26.2457 30.7928 26.26C34.635 26.26 37.1364 24.477 37.166 21.7177C37.1806 20.2036 36.2021 19.0434 34.0924 18.0954C32.8116 17.4868 32.0273 17.0764 32.0273 16.4538C32.0423 15.8877 32.6907 15.3079 34.1364 15.3079C35.3268 15.2795 36.2015 15.5482 36.8641 15.8172L37.1953 15.9584L37.6932 13.0863Z" fill="#15195A"/>
<path d="M47.0811 12.7607L50.0352 26.0615H46.6445C46.6445 26.0615 46.3132 24.5339 46.208 24.0664H41.5059C41.3696 24.4208 40.7373 26.0615 40.7373 26.0615H36.8955L42.335 13.8643C42.7118 13.0013 43.3749 12.7608 44.248 12.7607H47.0811ZM44.5049 16.3545C44.3305 16.832 44.0301 17.5991 44.0225 17.6279C44.0175 17.6406 42.8615 20.5871 42.5605 21.3496H45.6045C45.4547 20.6883 44.7683 17.5358 44.7607 17.501L44.5049 16.3545Z" fill="#15195A"/>
<path d="M10.7842 12.7607C11.5825 12.7888 12.2306 13.0296 12.4414 13.8789L13.7217 19.9912L14.1133 21.8301L17.7002 12.7607H21.5723L15.8164 26.0469H11.9443L8.67969 14.4893C7.5538 13.8711 6.2686 13.3743 4.83203 13.0293L4.89258 12.7607H10.7842Z" fill="#15195A"/>
</svg>
