<svg width="16" height="16" viewBox="0 0 16 16" fill="none" xmlns="http://www.w3.org/2000/svg">
<path d="M1.33203 1.33398H2.49203C3.21203 1.33398 3.7787 1.95398 3.7187 2.66732L3.16536 9.30731C3.07203 10.394 3.93203 11.3273 5.02536 11.3273H12.1254C13.0854 11.3273 13.9254 10.5407 13.9987 9.58732L14.3587 4.58732C14.4387 3.48065 13.5987 2.58065 12.4854 2.58065H3.8787" stroke="#242424" stroke-width="1.5" stroke-miterlimit="10" stroke-linecap="round" stroke-linejoin="round"/>
<path d="M10.8333 14.6667C11.2936 14.6667 11.6667 14.2936 11.6667 13.8333C11.6667 13.3731 11.2936 13 10.8333 13C10.3731 13 10 13.3731 10 13.8333C10 14.2936 10.3731 14.6667 10.8333 14.6667Z" stroke="#242424" stroke-width="1.5" stroke-miterlimit="10" stroke-linecap="round" stroke-linejoin="round"/>
<path d="M5.5013 14.6667C5.96154 14.6667 6.33464 14.2936 6.33464 13.8333C6.33464 13.3731 5.96154 13 5.5013 13C5.04106 13 4.66797 13.3731 4.66797 13.8333C4.66797 14.2936 5.04106 14.6667 5.5013 14.6667Z" stroke="#242424" stroke-width="1.5" stroke-miterlimit="10" stroke-linecap="round" stroke-linejoin="round"/>
<path d="M6 5.33398H14" stroke="#242424" stroke-width="1.5" stroke-miterlimit="10" stroke-linecap="round" stroke-linejoin="round"/>
</svg>
