<svg width="32" height="32" viewBox="0 0 32 32" fill="none" xmlns="http://www.w3.org/2000/svg">
<rect width="32" height="32" rx="16" fill="black"/>
<path d="M8.62281 19.008C8.62281 18.88 8.63348 18.744 8.65481 18.6C8.68148 18.4507 8.71881 18.2933 8.76681 18.128C8.82015 17.9573 8.88415 17.7787 8.95881 17.592L9.53481 17.816C9.48148 17.9653 9.43348 18.1067 9.39081 18.24C9.35348 18.3733 9.32415 18.4987 9.30281 18.616C9.28681 18.7333 9.27881 18.8453 9.27881 18.952C9.27881 19.176 9.32681 19.3653 9.42281 19.52C9.52415 19.68 9.66281 19.8107 9.83881 19.912C10.0148 20.0133 10.2148 20.088 10.4388 20.136C10.6681 20.184 10.9108 20.208 11.1668 20.208C11.4761 20.208 11.7641 20.1813 12.0308 20.128C12.3028 20.0747 12.5401 19.9973 12.7428 19.896C12.9508 19.8 13.1135 19.688 13.2308 19.56C13.3481 19.4373 13.4068 19.304 13.4068 19.16C13.4068 19.0907 13.3801 19.0267 13.3268 18.968C13.2735 18.9093 13.1935 18.8533 13.0868 18.8C12.9801 18.7467 12.8521 18.696 12.7028 18.648C12.5535 18.5947 12.3828 18.5413 12.1908 18.488L12.3428 17.824C12.6201 17.9307 12.8655 18.0213 13.0788 18.096C13.2921 18.1653 13.4788 18.2213 13.6388 18.264C13.7988 18.3067 13.9375 18.3387 14.0548 18.36C14.1721 18.376 14.2708 18.384 14.3508 18.384C14.4628 18.384 14.5428 18.416 14.5908 18.48C14.6441 18.5387 14.6708 18.6107 14.6708 18.696C14.6708 18.7813 14.6335 18.8613 14.5588 18.936C14.4841 19.0053 14.3881 19.04 14.2708 19.04C14.2388 19.04 14.2068 19.04 14.1748 19.04C14.1428 19.04 14.1081 19.04 14.0708 19.04C14.0388 19.04 14.0068 19.04 13.9748 19.04C13.9855 19.088 13.9935 19.1253 13.9988 19.152C14.0041 19.184 14.0068 19.224 14.0068 19.272C14.0068 19.4693 13.9375 19.6613 13.7988 19.848C13.6655 20.0347 13.4681 20.2027 13.2068 20.352C12.9455 20.5067 12.6281 20.6293 12.2548 20.72C11.8868 20.8107 11.4655 20.856 10.9908 20.856C10.5695 20.856 10.1775 20.7867 9.81481 20.648C9.45748 20.5147 9.16948 20.312 8.95081 20.04C8.73215 19.768 8.62281 19.424 8.62281 19.008ZM11.5668 22.368C11.4548 22.368 11.3588 22.328 11.2788 22.248C11.2041 22.1733 11.1668 22.0827 11.1668 21.976C11.1668 21.8693 11.2041 21.776 11.2788 21.696C11.3588 21.616 11.4548 21.576 11.5668 21.576C11.6735 21.576 11.7641 21.616 11.8388 21.696C11.9188 21.776 11.9588 21.8693 11.9588 21.976C11.9588 22.0827 11.9188 22.1733 11.8388 22.248C11.7641 22.328 11.6735 22.368 11.5668 22.368ZM10.4708 22.368C10.3588 22.368 10.2628 22.328 10.1828 22.248C10.1081 22.1733 10.0708 22.0827 10.0708 21.976C10.0708 21.8693 10.1081 21.776 10.1828 21.696C10.2628 21.616 10.3588 21.576 10.4708 21.576C10.5775 21.576 10.6681 21.616 10.7428 21.696C10.8228 21.776 10.8628 21.8693 10.8628 21.976C10.8628 22.0827 10.8228 22.1733 10.7428 22.248C10.6681 22.328 10.5775 22.368 10.4708 22.368ZM14.2734 19.04L14.3534 18.384C14.6148 18.384 14.8228 18.368 14.9774 18.336C15.1321 18.304 15.2441 18.24 15.3134 18.144C15.3828 18.0427 15.4174 17.8933 15.4174 17.696C15.4174 17.5627 15.3961 17.4053 15.3534 17.224C15.3108 17.0373 15.2548 16.84 15.1854 16.632C15.1161 16.424 15.0414 16.2187 14.9614 16.016L15.6094 15.776C15.6788 15.9467 15.7428 16.1413 15.8014 16.36C15.8654 16.5787 15.9188 16.7947 15.9614 17.008C16.0041 17.2213 16.0254 17.408 16.0254 17.568C16.0254 17.7813 16.0014 17.9707 15.9534 18.136C15.9108 18.296 15.8441 18.4347 15.7534 18.552C15.6628 18.664 15.5454 18.7573 15.4014 18.832C15.2628 18.9013 15.1001 18.9547 14.9134 18.992C14.7268 19.024 14.5134 19.04 14.2734 19.04ZM15.1294 20.528C15.0174 20.528 14.9214 20.488 14.8414 20.408C14.7668 20.3333 14.7294 20.2427 14.7294 20.136C14.7294 20.0293 14.7668 19.936 14.8414 19.856C14.9214 19.776 15.0174 19.736 15.1294 19.736C15.2361 19.736 15.3268 19.776 15.4014 19.856C15.4814 19.936 15.5214 20.0293 15.5214 20.136C15.5214 20.2427 15.4814 20.3333 15.4014 20.408C15.3268 20.488 15.2361 20.528 15.1294 20.528ZM16.4539 20.856L16.2219 20.248C16.6112 20.12 16.9339 19.9733 17.1899 19.808C17.4512 19.6427 17.6565 19.4667 17.8059 19.28C17.9605 19.0933 18.0699 18.904 18.1339 18.712C18.1979 18.5147 18.2299 18.3253 18.2299 18.144C18.2299 17.8827 18.1712 17.6187 18.0539 17.352C17.9419 17.08 17.8165 16.824 17.6779 16.584L18.2619 16.288C18.3632 16.4747 18.4512 16.6587 18.5259 16.84C18.6059 17.0213 18.6752 17.192 18.7339 17.352C18.7979 17.512 18.8485 17.6587 18.8859 17.792C18.9605 18.0213 19.0565 18.1787 19.1739 18.264C19.2965 18.344 19.4619 18.384 19.6699 18.384C19.7819 18.384 19.8619 18.416 19.9099 18.48C19.9632 18.5387 19.9899 18.6107 19.9899 18.696C19.9899 18.7813 19.9525 18.8613 19.8779 18.936C19.8032 19.0053 19.7072 19.04 19.5899 19.04C19.3552 19.04 19.1632 19 19.0139 18.92C18.8699 18.8347 18.7605 18.7253 18.6859 18.592C18.6112 18.4533 18.5605 18.3093 18.5339 18.16L18.7899 18.304C18.7899 18.656 18.7099 18.976 18.5499 19.264C18.3952 19.5573 18.1952 19.8107 17.9499 20.024C17.7045 20.2427 17.4485 20.4213 17.1819 20.56C16.9152 20.6987 16.6725 20.7973 16.4539 20.856ZM19.5938 19.04L19.6738 18.384C20.0098 18.384 20.2684 18.3813 20.4498 18.376C20.6364 18.3707 20.7724 18.3653 20.8578 18.36C20.9431 18.3493 21.0018 18.344 21.0338 18.344C20.9378 18.2907 20.8258 18.208 20.6978 18.096C20.5698 17.9787 20.4578 17.832 20.3618 17.656C20.2658 17.4747 20.2178 17.2613 20.2178 17.016C20.2178 16.712 20.2871 16.4453 20.4258 16.216C20.5698 15.9867 20.7644 15.808 21.0098 15.68C21.2604 15.552 21.5458 15.488 21.8658 15.488C21.9884 15.488 22.1191 15.4987 22.2578 15.52C22.3964 15.5413 22.5298 15.5733 22.6578 15.616L22.5218 16.232C22.4151 16.2053 22.3031 16.184 22.1858 16.168C22.0684 16.152 21.9618 16.144 21.8658 16.144C21.6738 16.144 21.5031 16.1813 21.3538 16.256C21.2044 16.3253 21.0871 16.424 21.0018 16.552C20.9164 16.68 20.8738 16.8347 20.8738 17.016C20.8738 17.1547 20.9031 17.2827 20.9618 17.4C21.0204 17.512 21.0978 17.6133 21.1938 17.704C21.2898 17.7947 21.3964 17.8693 21.5138 17.928C21.6311 17.9867 21.7458 18.032 21.8578 18.064C21.9751 18.096 22.0791 18.1093 22.1698 18.104C22.2338 18.0827 22.2924 18.064 22.3458 18.048C22.3991 18.032 22.4578 18.0133 22.5218 17.992C22.5911 17.9653 22.6738 17.9307 22.7698 17.888C22.8711 17.8453 22.9991 17.7893 23.1538 17.72L23.3778 18.304C23.0204 18.448 22.6551 18.576 22.2818 18.688C21.9138 18.8 21.5111 18.888 21.0738 18.952C20.6418 19.0107 20.1484 19.04 19.5938 19.04Z" fill="#9C9C9D"/>
</svg>
