<svg width="32" height="32" viewBox="0 0 32 32" fill="none" xmlns="http://www.w3.org/2000/svg">
<rect width="32" height="32" rx="16" fill="black"/>
<path d="M13.915 10.5469H15.2275V17.2803C15.2275 18.0277 15.0612 18.6497 14.7285 19.1465C14.3958 19.6432 13.9538 20.0169 13.4023 20.2676C12.8555 20.5137 12.2607 20.6367 11.6182 20.6367C10.9437 20.6367 10.333 20.5137 9.78613 20.2676C9.24382 20.0169 8.81315 19.6432 8.49414 19.1465C8.17969 18.6497 8.02246 18.0277 8.02246 17.2803V10.5469H9.32812V17.2803C9.32812 17.7998 9.42383 18.2282 9.61523 18.5654C9.80664 18.9027 10.0732 19.1533 10.415 19.3174C10.7614 19.4814 11.1624 19.5635 11.6182 19.5635C12.0785 19.5635 12.4795 19.4814 12.8213 19.3174C13.1676 19.1533 13.4365 18.9027 13.6279 18.5654C13.8193 18.2282 13.915 17.7998 13.915 17.2803V10.5469ZM18.6182 10.5469V20.5H17.2988V10.5469H18.6182ZM24.627 10.5469L20.4912 15.1885L18.167 17.6016L17.9482 16.1934L19.6982 14.2656L23.041 10.5469H24.627ZM23.3555 20.5L19.6709 15.6465L20.457 14.6006L24.9277 20.5H23.3555Z" fill="#9C9C9D"/>
</svg>
