<svg width="16" height="16" viewBox="0 0 16 16" fill="none" xmlns="http://www.w3.org/2000/svg">
<path d="M3.33333 6.66699C2.6 6.66699 2 7.26699 2 8.00033C2 8.73366 2.6 9.33366 3.33333 9.33366C4.06667 9.33366 4.66667 8.73366 4.66667 8.00033C4.66667 7.26699 4.06667 6.66699 3.33333 6.66699Z" stroke="#242424" stroke-width="1.5"/>
<path d="M12.6654 6.66699C11.932 6.66699 11.332 7.26699 11.332 8.00033C11.332 8.73366 11.932 9.33366 12.6654 9.33366C13.3987 9.33366 13.9987 8.73366 13.9987 8.00033C13.9987 7.26699 13.3987 6.66699 12.6654 6.66699Z" stroke="#242424" stroke-width="1.5"/>
<path d="M8.0013 6.66699C7.26797 6.66699 6.66797 7.26699 6.66797 8.00033C6.66797 8.73366 7.26797 9.33366 8.0013 9.33366C8.73464 9.33366 9.33464 8.73366 9.33464 8.00033C9.33464 7.26699 8.73464 6.66699 8.0013 6.66699Z" stroke="#4D4E52" stroke-width="1.5"/>
</svg>
