<svg width="21" height="20" viewBox="0 0 21 20" fill="none" xmlns="http://www.w3.org/2000/svg">
<path fill-rule="evenodd" clip-rule="evenodd" d="M20.3985 10C20.3985 15.523 15.9214 20 10.3984 20C8.79845 20 7.28645 19.624 5.94645 18.956C5.59259 18.7727 5.18383 18.7254 4.79745 18.823L2.57145 19.419C2.35112 19.4778 2.1192 19.4776 1.89898 19.4184C1.67875 19.3593 1.47796 19.2432 1.31676 19.0819C1.15557 18.9206 1.03964 18.7197 0.980605 18.4995C0.921574 18.2792 0.92152 18.0473 0.98045 17.827L1.57545 15.601C1.67251 15.2148 1.62484 14.8065 1.44145 14.453C0.753082 13.0697 0.396002 11.5451 0.39845 10C0.39845 4.477 4.87545 0 10.3984 0C15.9214 0 20.3985 4.477 20.3985 10ZM5.89845 9.108C5.89845 10.477 7.21745 11.913 8.42745 12.942C9.25045 13.642 9.66245 13.993 10.3984 13.993C11.1344 13.993 11.5464 13.643 12.3694 12.942C13.5794 11.912 14.8984 10.477 14.8984 9.108C14.8984 6.431 12.4235 5.432 10.3984 7.5C8.37345 5.432 5.89845 6.431 5.89845 9.108Z" fill="#878787"/>
</svg>
