<svg width="20" height="20" viewBox="0 0 20 20" fill="none" xmlns="http://www.w3.org/2000/svg">
<path d="M10.7068 0.292786L19.7068 9.29279C20.3368 9.92279 19.8908 10.9998 18.9998 10.9998H17.9998V16.9998C17.9998 17.7954 17.6837 18.5585 17.1211 19.1211C16.5585 19.6837 15.7954 19.9998 14.9998 19.9998H13.9998V12.9998C13.9998 12.2346 13.7075 11.4983 13.1825 10.9415C12.6576 10.3848 11.9397 10.0497 11.1758 10.0048L10.9998 9.99979H8.99979C8.20415 9.99979 7.44108 10.3159 6.87847 10.8785C6.31587 11.4411 5.99979 12.2041 5.99979 12.9998V19.9998H4.99979C4.20415 19.9998 3.44108 19.6837 2.87847 19.1211C2.31587 18.5585 1.99979 17.7954 1.99979 16.9998V10.9998H0.999795C0.109795 10.9998 -0.337205 9.92279 0.292795 9.29279L9.2928 0.292786C9.48032 0.105315 9.73463 0 9.99979 0C10.265 0 10.5193 0.105315 10.7068 0.292786ZM10.9998 11.9998C11.265 11.9998 11.5194 12.1051 11.7069 12.2927C11.8944 12.4802 11.9998 12.7346 11.9998 12.9998V19.9998H7.99979V12.9998C7.99983 12.7549 8.08975 12.5184 8.25251 12.3354C8.41527 12.1524 8.63954 12.0354 8.8828 12.0068L8.99979 11.9998H10.9998Z" fill="#FFFBF1"/>
</svg>
