<svg width="23" height="22" viewBox="0 0 23 22" fill="none" xmlns="http://www.w3.org/2000/svg">
<path d="M17.2592 22H18.9192C19.7592 22 20.4492 21.35 20.5492 20.53L22.1992 4.05H17.1992V0H15.2292V4.05H10.2592L10.5592 6.39C12.2692 6.86 13.8692 7.71 14.8292 8.65C16.2692 10.07 17.2592 11.54 17.2592 13.94V22ZM0.199219 21V20H15.2292V21C15.2292 21.54 14.7792 22 14.1992 22H1.19922C0.649219 22 0.199219 21.54 0.199219 21ZM15.2292 14C15.2292 6 0.199219 6 0.199219 14H15.2292ZM0.199219 16H15.1992V18H0.199219V16Z" fill="#878787"/>
</svg>
