<svg width="19" height="18" viewBox="0 0 19 18" fill="none" xmlns="http://www.w3.org/2000/svg">
<path d="M2.59961 8H6.59961C7.69961 8 8.59961 7.1 8.59961 6V2C8.59961 0.9 7.69961 0 6.59961 0H2.59961C1.49961 0 0.599609 0.9 0.599609 2V6C0.599609 7.1 1.49961 8 2.59961 8ZM2.59961 2H6.59961V6H2.59961V2ZM2.59961 18H6.59961C7.69961 18 8.59961 17.1 8.59961 16V12C8.59961 10.9 7.69961 10 6.59961 10H2.59961C1.49961 10 0.599609 10.9 0.599609 12V16C0.599609 17.1 1.49961 18 2.59961 18ZM2.59961 12H6.59961V16H2.59961V12ZM10.5996 2V6C10.5996 7.1 11.4996 8 12.5996 8H16.5996C17.6996 8 18.5996 7.1 18.5996 6V2C18.5996 0.9 17.6996 0 16.5996 0H12.5996C11.4996 0 10.5996 0.9 10.5996 2ZM16.5996 6H12.5996V2H16.5996V6ZM18.5996 17.5V16.5C18.5996 16.22 18.3796 16 18.0996 16H17.0996C16.8196 16 16.5996 16.22 16.5996 16.5V17.5C16.5996 17.78 16.8196 18 17.0996 18H18.0996C18.3796 18 18.5996 17.78 18.5996 17.5ZM10.5996 10.5V11.5C10.5996 11.78 10.8196 12 11.0996 12H12.0996C12.3796 12 12.5996 11.78 12.5996 11.5V10.5C12.5996 10.22 12.3796 10 12.0996 10H11.0996C10.8196 10 10.5996 10.22 10.5996 10.5ZM14.0996 12H13.0996C12.8196 12 12.5996 12.22 12.5996 12.5V13.5C12.5996 13.78 12.8196 14 13.0996 14H14.0996C14.3796 14 14.5996 13.78 14.5996 13.5V12.5C14.5996 12.22 14.3796 12 14.0996 12ZM10.5996 14.5V15.5C10.5996 15.78 10.8196 16 11.0996 16H12.0996C12.3796 16 12.5996 15.78 12.5996 15.5V14.5C12.5996 14.22 12.3796 14 12.0996 14H11.0996C10.8196 14 10.5996 14.22 10.5996 14.5ZM13.0996 18H14.0996C14.3796 18 14.5996 17.78 14.5996 17.5V16.5C14.5996 16.22 14.3796 16 14.0996 16H13.0996C12.8196 16 12.5996 16.22 12.5996 16.5V17.5C12.5996 17.78 12.8196 18 13.0996 18ZM15.0996 16H16.0996C16.3796 16 16.5996 15.78 16.5996 15.5V14.5C16.5996 14.22 16.3796 14 16.0996 14H15.0996C14.8196 14 14.5996 14.22 14.5996 14.5V15.5C14.5996 15.78 14.8196 16 15.0996 16ZM16.0996 10H15.0996C14.8196 10 14.5996 10.22 14.5996 10.5V11.5C14.5996 11.78 14.8196 12 15.0996 12H16.0996C16.3796 12 16.5996 11.78 16.5996 11.5V10.5C16.5996 10.22 16.3796 10 16.0996 10ZM17.0996 14H18.0996C18.3796 14 18.5996 13.78 18.5996 13.5V12.5C18.5996 12.22 18.3796 12 18.0996 12H17.0996C16.8196 12 16.5996 12.22 16.5996 12.5V13.5C16.5996 13.78 16.8196 14 17.0996 14Z" fill="#9C9C9D"/>
</svg>
