<svg width="20" height="22" viewBox="0 0 20 22" fill="none" xmlns="http://www.w3.org/2000/svg">
<path d="M7.88528 0.581002C7.98454 0.630205 8.07166 0.700785 8.14039 0.787669C8.20912 0.874554 8.25775 0.975585 8.28278 1.0835C8.30978 1.202 9.05078 4.373 9.05078 6.5C9.05078 7.925 8.38778 9.1955 7.35578 10.019C6.98078 10.319 6.80078 10.646 6.80078 10.919V11.648C6.80078 11.683 6.80278 11.716 6.80678 11.747C6.85778 12.119 7.04228 13.5005 7.21478 14.933C7.38428 16.3385 7.55078 17.8715 7.55078 18.5C7.55078 19.2957 7.23471 20.0587 6.6721 20.6213C6.10949 21.1839 5.34643 21.5 4.55078 21.5C3.75513 21.5 2.99207 21.1839 2.42946 20.6213C1.86685 20.0587 1.55078 19.2957 1.55078 18.5C1.55078 17.87 1.71728 16.34 1.88678 14.933C2.05928 13.5005 2.24378 12.119 2.29478 11.747L2.30078 11.648V10.919C2.30078 10.646 2.12078 10.319 1.74578 10.019C1.217 9.59749 0.790024 9.06223 0.496574 8.45299C0.203124 7.84376 0.0507517 7.17623 0.0507813 6.5C0.0507813 4.3805 0.785781 1.226 0.818781 1.085C0.857776 0.918262 0.952115 0.769654 1.08641 0.663414C1.22071 0.557175 1.38704 0.499572 1.55828 0.500002C1.97828 0.500002 2.31878 0.840502 2.31878 1.2605V5.7575C2.31287 5.8588 2.32778 5.96023 2.36259 6.05554C2.39741 6.15085 2.45139 6.23801 2.5212 6.31164C2.59101 6.38527 2.67518 6.44381 2.7685 6.48365C2.86182 6.52349 2.96231 6.54378 3.06378 6.54327C3.16524 6.54275 3.26553 6.52145 3.35844 6.48067C3.45135 6.43989 3.53492 6.38049 3.60398 6.30616C3.67304 6.23182 3.72614 6.14412 3.75999 6.04847C3.79384 5.95281 3.80772 5.85123 3.80078 5.75V1.25C3.80078 1.05109 3.8798 0.860325 4.02045 0.719672C4.1611 0.57902 4.35187 0.500002 4.55078 0.500002C4.74969 0.500002 4.94046 0.57902 5.08111 0.719672C5.22176 0.860325 5.30078 1.05109 5.30078 1.25V5.789C5.30496 5.98593 5.38719 6.17312 5.52939 6.30942C5.67159 6.44571 5.86211 6.51993 6.05903 6.51575C6.25595 6.51158 6.44315 6.42934 6.57944 6.28714C6.71574 6.14494 6.78996 5.95443 6.78578 5.7575V1.2575C6.78578 0.839002 7.12478 0.500002 7.54478 0.500002C7.57778 0.500002 7.72478 0.500002 7.88528 0.581002ZM11.3008 7.25C11.3008 5.45979 12.0119 3.7429 13.2778 2.47703C14.5437 1.21116 16.2606 0.500002 18.0508 0.500002C18.2497 0.500002 18.4405 0.57902 18.5811 0.719672C18.7218 0.860325 18.8008 1.05109 18.8008 1.25V10.2095L18.8293 10.475C18.9486 11.5945 19.0631 12.7145 19.1728 13.835C19.3573 15.719 19.5508 17.831 19.5508 18.5C19.5508 19.2957 19.2347 20.0587 18.6721 20.6213C18.1095 21.1839 17.3464 21.5 16.5508 21.5C15.7551 21.5 14.9921 21.1839 14.4295 20.6213C13.8669 20.0587 13.5508 19.2957 13.5508 18.5C13.5508 17.831 13.7443 15.719 13.9288 13.835C14.0233 12.8795 14.1178 11.9645 14.1883 11.2865L14.2183 11H12.8008C12.403 11 12.0214 10.842 11.7401 10.5607C11.4588 10.2794 11.3008 9.89783 11.3008 9.5V7.25Z" fill="#878787"/>
</svg>
