<svg width="16" height="16" viewBox="0 0 16 16" fill="none" xmlns="http://www.w3.org/2000/svg">
<path d="M6.97164 1.51638C7.27216 0.488791 8.72784 0.488791 9.02835 1.51638L10.0981 5.17428C10.2007 5.52504 10.475 5.79932 10.8257 5.9019L14.4836 6.97164C15.5112 7.27216 15.5112 8.72784 14.4836 9.02835L10.8257 10.0981C10.475 10.2007 10.2007 10.475 10.0981 10.8257L9.02835 14.4836C8.72784 15.5112 7.27216 15.5112 6.97164 14.4836L5.9019 10.8257C5.79932 10.475 5.52504 10.2007 5.17428 10.0981L1.51638 9.02835C0.488791 8.72784 0.488791 7.27216 1.51638 6.97164L5.17428 5.9019C5.52504 5.79932 5.79932 5.52504 5.9019 5.17428L6.97164 1.51638Z" fill="url(#paint0_radial_2369_35491)"/>
<path d="M6.97164 1.51638C7.27216 0.488791 8.72784 0.488791 9.02835 1.51638L10.0981 5.17428C10.2007 5.52504 10.475 5.79932 10.8257 5.9019L14.4836 6.97164C15.5112 7.27216 15.5112 8.72784 14.4836 9.02835L10.8257 10.0981C10.475 10.2007 10.2007 10.475 10.0981 10.8257L9.02835 14.4836C8.72784 15.5112 7.27216 15.5112 6.97164 14.4836L5.9019 10.8257C5.79932 10.475 5.52504 10.2007 5.17428 10.0981L1.51638 9.02835C0.488791 8.72784 0.488791 7.27216 1.51638 6.97164L5.17428 5.9019C5.52504 5.79932 5.79932 5.52504 5.9019 5.17428L6.97164 1.51638Z" fill="white" fill-opacity="0.2"/>
<defs>
<radialGradient id="paint0_radial_2369_35491" cx="0" cy="0" r="1" gradientUnits="userSpaceOnUse" gradientTransform="translate(7.84694 8.49645) rotate(136.017) scale(13.685 37.4042)">
<stop offset="0.479903" stop-color="#FFF9A3"/>
<stop offset="1" stop-color="#EDC760"/>
</radialGradient>
</defs>
</svg>
