<svg width="40" height="40" viewBox="0 0 40 40" fill="none" xmlns="http://www.w3.org/2000/svg">
<rect width="40" height="40" rx="20" fill="#FFFCF5"/>
<path d="M19 21H14C13.7167 21 13.4793 20.904 13.288 20.712C13.0967 20.52 13.0007 20.2827 13 20C12.9993 19.7173 13.0953 19.48 13.288 19.288C13.4807 19.096 13.718 19 14 19H19V14C19 13.7167 19.096 13.4793 19.288 13.288C19.48 13.0967 19.7173 13.0007 20 13C20.2827 12.9993 20.5203 13.0953 20.713 13.288C20.9057 13.4807 21.0013 13.718 21 14V19H26C26.2833 19 26.521 19.096 26.713 19.288C26.905 19.48 27.0007 19.7173 27 20C26.9993 20.2827 26.9033 20.5203 26.712 20.713C26.5207 20.9057 26.2833 21.0013 26 21H21V26C21 26.2833 20.904 26.521 20.712 26.713C20.52 26.905 20.2827 27.0007 20 27C19.7173 26.9993 19.48 26.9033 19.288 26.712C19.096 26.5207 19 26.2833 19 26V21Z" fill="#1A1A1A" fill-opacity="0.8"/>
</svg>
