<svg width="40" height="40" viewBox="0 0 40 40" fill="none" xmlns="http://www.w3.org/2000/svg">
<rect width="40" height="40" rx="20" fill="black"/>
<path d="M12.3852 16.2845C12.104 16.621 11.6539 16.8865 11.2038 16.8485C11.1476 16.3936 11.3679 15.91 11.6257 15.6114C11.907 15.2655 12.3993 15.019 12.7978 15C12.8446 15.474 12.6618 15.9385 12.3852 16.2845ZM12.7931 16.9386C12.1415 16.9007 11.5836 17.313 11.2742 17.313C10.9601 17.313 10.4866 16.9576 9.97092 16.9671C9.30056 16.9765 8.67702 17.3604 8.33479 17.9719C7.63157 19.1948 8.15198 21.0054 8.83171 22.0008C9.16457 22.4937 9.56306 23.0341 10.0881 23.0151C10.5851 22.9962 10.7819 22.6881 11.382 22.6881C11.9868 22.6881 12.1603 23.0151 12.6853 23.0056C13.2291 22.9962 13.5713 22.5127 13.9042 22.0198C14.2839 21.4605 14.4386 20.9154 14.448 20.8869C14.4386 20.8774 13.3979 20.4746 13.3885 19.2611C13.3791 18.2468 14.2089 17.7634 14.2464 17.7349C13.7776 17.0334 13.0463 16.9576 12.7931 16.9386ZM16.5576 15.564V22.9536H17.6921V20.4272H19.2626C20.6971 20.4272 21.7051 19.4318 21.7051 17.9909C21.7051 16.55 20.7159 15.5641 19.3001 15.5641L16.5576 15.564ZM17.6921 16.531H19.0001C19.9846 16.531 20.5471 17.0618 20.5471 17.9956C20.5471 18.9293 19.9846 19.465 18.9954 19.465H17.6921V16.531ZM23.7771 23.0104C24.4897 23.0104 25.1507 22.6455 25.4508 22.0672H25.4742V22.9535H26.5244V19.2754C26.5244 18.2089 25.6805 17.5216 24.3819 17.5216C23.1771 17.5216 22.2863 18.2184 22.2535 19.1758H23.2755C23.3599 18.7208 23.7771 18.4222 24.3491 18.4222C25.0429 18.4222 25.432 18.7492 25.432 19.3512V19.7588L24.0162 19.8441C22.6989 19.9247 21.9863 20.4698 21.9863 21.4178C21.9863 22.3753 22.7223 23.0104 23.7771 23.0104ZM24.0818 22.1335C23.4771 22.1335 23.0927 21.8397 23.0927 21.3893C23.0927 20.9249 23.463 20.6547 24.1709 20.612L25.432 20.5315V20.9485C25.432 21.6406 24.8507 22.1335 24.0819 22.1335M27.9261 24.9632C29.0325 24.9632 29.5529 24.5367 30.0076 23.2427L32 17.5927H30.8467L29.5106 21.9581H29.4872L28.1511 17.5927H26.965L28.8871 22.9725L28.784 23.2995C28.6105 23.8541 28.3292 24.0674 27.8276 24.0674C27.7386 24.0674 27.5651 24.0579 27.4948 24.0484V24.9348C27.5604 24.9537 27.8416 24.9632 27.9261 24.9632" fill="#FEFEFF" fill-opacity="0.8"/>
</svg>
