<svg width="40" height="40" viewBox="0 0 40 40" fill="none" xmlns="http://www.w3.org/2000/svg">
<rect width="40" height="40" rx="20" fill="#FFFCF5"/>
<path d="M27.3009 15.92V21.07C27.3009 24.15 25.5409 25.47 22.9009 25.47H14.1109C13.6609 25.47 13.2309 25.43 12.8309 25.34C12.5809 25.3 12.3409 25.23 12.1209 25.15C10.6209 24.59 9.71094 23.29 9.71094 21.07V15.92C9.71094 12.84 11.4709 11.52 14.1109 11.52H22.9009C25.1409 11.52 26.7509 12.47 27.1809 14.64C27.2509 15.04 27.3009 15.45 27.3009 15.92Z" stroke="#1A1A1A" stroke-opacity="0.8" stroke-width="1.5" stroke-miterlimit="10" stroke-linecap="round" stroke-linejoin="round"/>
<path d="M30.302 18.9201V24.0701C30.302 27.1501 28.542 28.4701 25.902 28.4701H17.112C16.372 28.4701 15.702 28.3701 15.122 28.1501C13.932 27.7101 13.122 26.8001 12.832 25.3401C13.232 25.4301 13.662 25.4701 14.112 25.4701H22.902C25.542 25.4701 27.302 24.1501 27.302 21.0701V15.9201C27.302 15.4501 27.262 15.0301 27.182 14.6401C29.082 15.0401 30.302 16.3801 30.302 18.9201Z" stroke="#1A1A1A" stroke-opacity="0.8" stroke-width="1.5" stroke-miterlimit="10" stroke-linecap="round" stroke-linejoin="round"/>
<path d="M18.4994 21.1399C19.9574 21.1399 21.1394 19.9579 21.1394 18.4999C21.1394 17.0418 19.9574 15.8599 18.4994 15.8599C17.0414 15.8599 15.8594 17.0418 15.8594 18.4999C15.8594 19.9579 17.0414 21.1399 18.4994 21.1399Z" stroke="#1A1A1A" stroke-opacity="0.8" stroke-width="1.5" stroke-miterlimit="10" stroke-linecap="round" stroke-linejoin="round"/>
<path d="M12.7812 16.3V20.7001" stroke="#1A1A1A" stroke-opacity="0.8" stroke-width="1.5" stroke-miterlimit="10" stroke-linecap="round" stroke-linejoin="round"/>
<path d="M24.2227 16.3003V20.7003" stroke="#1A1A1A" stroke-opacity="0.8" stroke-width="1.5" stroke-miterlimit="10" stroke-linecap="round" stroke-linejoin="round"/>
</svg>
