<svg width="40" height="40" viewBox="0 0 40 40" fill="none" xmlns="http://www.w3.org/2000/svg">
<rect width="40" height="40" rx="20" fill="#FFFCF5"/>
<path fill-rule="evenodd" clip-rule="evenodd" d="M14.5701 17.832C14.2288 17.5077 13.7739 17.3299 13.3031 17.337C12.4411 17.337 11.7101 17.917 11.4481 18.7C11.3101 19.11 11.3101 19.554 11.4481 19.964C11.7101 20.747 12.4411 21.328 13.3031 21.328C13.7491 21.328 14.1311 21.213 14.4271 21.012C14.5992 20.8979 14.7464 20.7501 14.8598 20.5775C14.9732 20.405 15.0505 20.2112 15.0871 20.008H13.3031V18.736H16.4171C16.4558 18.958 16.4748 19.182 16.4741 19.408C16.4741 20.413 16.1151 21.263 15.4921 21.838C14.9441 22.342 14.1941 22.635 13.3021 22.635C12.4435 22.6091 11.6287 22.2499 11.0304 21.6333C10.4322 21.0168 10.0977 20.1916 10.0977 19.3325C10.0977 18.4735 10.4322 17.6482 11.0304 17.0317C11.6287 16.4152 12.4435 16.0559 13.3021 16.03C14.1221 16.02 14.9151 16.328 15.5121 16.89L14.5701 17.832ZM19.4591 19.909V22.237H18.7201V16.488H20.6791C20.9129 16.4832 21.1453 16.5247 21.3629 16.6101C21.5806 16.6956 21.7791 16.8234 21.9471 16.986C22.1169 17.1387 22.252 17.3259 22.3434 17.5351C22.4348 17.7444 22.4804 17.9707 22.4771 18.199C22.4814 18.4285 22.4363 18.6562 22.3449 18.8667C22.2534 19.0772 22.1178 19.2656 21.9471 19.419C21.6051 19.7457 21.1824 19.909 20.6791 19.909H19.4591ZM19.4591 17.196V19.203H20.6971C20.8327 19.2067 20.9676 19.1823 21.0933 19.1311C21.2189 19.08 21.3326 19.0034 21.4271 18.906C21.521 18.8147 21.5956 18.7055 21.6466 18.5848C21.6976 18.4642 21.7238 18.3345 21.7238 18.2035C21.7238 18.0725 21.6976 17.9429 21.6466 17.8222C21.5956 17.7016 21.521 17.5923 21.4271 17.501C21.3341 17.4012 21.2209 17.3224 21.095 17.2698C20.9691 17.2172 20.8335 17.1921 20.6971 17.196H19.4591ZM24.1791 18.176C24.7251 18.176 25.1561 18.3217 25.4721 18.613C25.7874 18.905 25.9451 19.305 25.9451 19.813V22.237H25.2381V21.691H25.2061C24.9008 22.141 24.4941 22.366 23.9861 22.366C23.5528 22.366 23.1904 22.2374 22.8991 21.98C22.7591 21.8622 22.6471 21.7146 22.5713 21.548C22.4955 21.3814 22.4579 21.2 22.4611 21.017C22.4611 20.6104 22.6148 20.287 22.9221 20.047C23.2301 19.8057 23.6408 19.685 24.1541 19.685C24.5934 19.685 24.9548 19.765 25.2381 19.925V19.757C25.2391 19.6322 25.2122 19.5087 25.1594 19.3956C25.1067 19.2825 25.0293 19.1825 24.9331 19.103C24.7377 18.9269 24.4832 18.8305 24.2201 18.833C23.8081 18.833 23.4814 19.0074 23.2401 19.356L22.5901 18.946C22.9481 18.4327 23.4778 18.176 24.1791 18.176ZM23.2231 21.033C23.2226 21.1271 23.2445 21.2199 23.2871 21.3037C23.3298 21.3876 23.3918 21.46 23.4681 21.515C23.6315 21.6434 23.8343 21.7112 24.0421 21.707C24.3541 21.707 24.6521 21.583 24.8721 21.363C25.1181 21.133 25.2408 20.8627 25.2401 20.552C25.0101 20.368 24.6891 20.2764 24.2771 20.277C23.9771 20.277 23.7271 20.3494 23.5271 20.494C23.3244 20.6394 23.2231 20.8194 23.2231 21.034M27.5331 23.972L30.0001 18.304H29.1961L28.0561 21.13H28.0401L26.8681 18.304H26.0651L27.6871 21.988L26.7711 23.971L27.5331 23.972Z" fill="#1A1A1A" fill-opacity="0.8"/>
</svg>
