<svg width="40" height="40" viewBox="0 0 40 40" fill="none" xmlns="http://www.w3.org/2000/svg">
<rect width="40" height="40" rx="20" fill="#FFFCF5"/>
<path d="M19.051 20.0139H19.792C19.83 19.7999 19.762 19.6169 19.525 19.6169C19.288 19.6169 19.12 19.7389 19.051 20.0139ZM14.874 20.4109L14.837 20.4049C14.727 20.3849 14.533 20.3489 14.363 20.4649C14.172 20.5949 14.118 20.8229 14.317 20.8999C14.508 20.9729 14.79 20.8469 14.829 20.6479L14.874 20.4109ZM28.474 20.3419C28.536 20.1439 28.502 19.8959 28.436 19.8079C28.253 19.5639 27.832 19.7569 27.703 20.2359C27.619 20.5489 27.803 20.7859 28.009 20.7859C28.23 20.7859 28.367 20.6099 28.474 20.3419ZM24.954 20.4109L24.917 20.4049C24.807 20.3849 24.612 20.3489 24.443 20.4649C24.252 20.5949 24.198 20.8229 24.397 20.8999C24.588 20.9729 24.87 20.8469 24.908 20.6479L24.954 20.4109Z" fill="#1A1A1A" fill-opacity="0.8"/>
<path d="M24.08 14.0801C25.6501 14.0801 27.1559 14.7038 28.2661 15.814C29.3763 16.9242 30 18.43 30 20.0001C30 21.5702 29.3763 23.076 28.2661 24.1862C27.1559 25.2964 25.6501 25.9201 24.08 25.9201C22.7205 25.9231 21.4022 25.4532 20.351 24.5911C21.1406 23.8328 21.7225 22.8845 22.041 21.8371H21.549C21.2427 22.7697 20.7086 23.6111 19.995 24.2851C19.2859 23.6107 18.7556 22.7705 18.452 21.8401H17.96C18.2745 22.8831 18.85 23.8287 19.632 24.5871C18.585 25.4455 17.2739 25.9164 15.92 25.9201C14.3499 25.9201 12.8441 25.2964 11.7339 24.1862C10.6237 23.076 10 21.5702 10 20.0001C10 18.43 10.6237 16.9242 11.7339 15.814C12.8441 14.7038 14.3499 14.0801 15.92 14.0801C17.33 14.0801 18.615 14.5901 19.632 15.4131C18.85 16.1715 18.2745 17.117 17.96 18.1601H18.452C18.7556 17.2297 19.2859 16.3895 19.995 15.7151C20.7086 16.3891 21.2427 17.2305 21.549 18.1631H22.041C21.7225 17.1157 21.1406 16.1674 20.351 15.4091C21.4025 14.5467 22.7211 14.0769 24.081 14.0801M26.059 19.1961L25.65 21.3861H26.252L26.437 20.3841C26.605 19.7621 26.864 19.7641 27.016 19.7671H27.039L27.201 19.1971C26.9 19.1971 26.722 19.3041 26.63 19.4121L26.576 19.1961H26.059ZM18.325 18.6401H17.729L17.317 20.7171C17.202 21.3121 17.653 21.3971 17.79 21.3971C17.9447 21.4021 18.0979 21.3648 18.233 21.2891L18.271 20.8471C17.928 20.9001 17.912 20.7471 17.943 20.5791L18.111 19.6931H18.416L18.523 19.2201H18.203L18.325 18.6401ZM19.493 19.1901C18.56 19.1901 18.417 20.0871 18.389 20.2671L18.386 20.2811C18.363 20.4191 18.348 21.3891 19.379 21.3891C19.631 21.3961 19.997 21.3661 20.143 21.2891L20.234 20.8391C20.0119 20.8756 19.7871 20.8934 19.562 20.8921H19.542C19.304 20.8921 18.946 20.8931 19.012 20.4121H20.31C20.38 20.0601 20.54 19.1901 19.493 19.1901ZM17.302 19.2651C17.055 19.1711 16.855 19.1771 16.752 19.1801H16.709C16.608 19.1801 15.912 19.1801 15.804 19.7001C15.72 20.1051 15.868 20.2721 16.01 20.3341C16.16 20.3991 16.267 20.4601 16.358 20.5121C16.4047 20.5401 16.4493 20.5648 16.492 20.5861C16.642 20.6611 16.615 20.9141 16.415 20.9141L16.343 20.9171C16.189 20.9261 15.875 20.9431 15.629 20.8611L15.545 21.3111C15.82 21.3881 16.041 21.3881 16.247 21.3881H16.27C16.455 21.3901 17.107 21.3961 17.201 20.7691C17.25 20.4491 17.11 20.3031 16.995 20.2351C16.8585 20.146 16.7158 20.0668 16.568 19.9981C16.446 19.9441 16.354 19.7381 16.575 19.6781C16.713 19.6621 16.995 19.6621 17.163 19.7081L17.302 19.2651ZM13.797 18.7451H12.819L12.094 20.3491L11.979 18.7451H11.025L10.513 21.3881H11.109L11.475 19.4781L11.635 21.3881H12.201L13.033 19.5241L12.682 21.3881H13.299L13.797 18.7451ZM13.865 19.7311L14.009 19.7131C14.189 19.6901 14.45 19.6561 14.606 19.6621L14.666 19.6631C14.853 19.6671 15.035 19.6711 14.973 19.9671C14.9523 19.9684 14.919 19.9684 14.873 19.9671C14.56 19.9571 13.729 19.9321 13.583 20.7311C13.514 21.1811 13.903 21.4111 14.209 21.3951C14.514 21.3801 14.599 21.3421 14.705 21.2651L14.782 21.3881H15.339L15.576 20.1961C15.637 19.8991 15.736 19.1811 14.736 19.1811L14.64 19.1841C14.478 19.1881 14.28 19.1941 13.957 19.2571L13.865 19.7311ZM23.151 19.2501C23.35 19.2501 23.456 19.2651 23.609 19.3561L23.999 18.9671C23.846 18.7991 23.67 18.6341 23.182 18.6161C22.769 18.6001 22.062 18.9011 21.838 19.7231C21.532 20.8381 22.204 21.3881 22.823 21.3881C23.151 21.3881 23.35 21.3421 23.548 21.2501L23.372 20.7161C22.762 20.9221 22.326 20.6091 22.426 19.9751C22.509 19.4391 22.952 19.2491 23.151 19.2491M28.603 19.3681C28.523 19.2841 28.431 19.1881 28.221 19.1881H28.167C27.839 19.1841 27.366 19.1791 27.091 20.1191C26.897 20.7821 27.29 21.3871 27.717 21.3871C27.916 21.3791 28.114 21.2951 28.237 21.2111L28.313 21.3871H28.954L29.474 18.6071H28.847L28.687 19.4471C28.6575 19.4221 28.6294 19.3954 28.603 19.3671M23.945 19.7291L24.089 19.7111C24.269 19.6881 24.529 19.6541 24.686 19.6601L24.746 19.6611C24.933 19.6651 25.115 19.6691 25.052 19.9651C25.032 19.9664 24.9987 19.9664 24.952 19.9651C24.64 19.9551 23.809 19.9301 23.662 20.7291C23.594 21.1791 23.983 21.4091 24.289 21.3931C24.594 21.3781 24.678 21.3401 24.785 21.2631L24.862 21.3861H25.419L25.656 20.1941C25.716 19.8971 25.816 19.1791 24.816 19.1791L24.72 19.1821C24.558 19.1861 24.36 19.1921 24.037 19.2551L23.945 19.7291ZM20.732 19.2171L20.327 21.3861H20.923L21.106 20.3931C21.271 19.7831 21.532 19.7871 21.682 19.7891H21.709L21.862 19.2171C21.565 19.2171 21.389 19.3241 21.297 19.4311L21.244 19.2171H20.732Z" fill="#1A1A1A" fill-opacity="0.8"/>
</svg>
