<svg width="40" height="40" viewBox="0 0 40 40" fill="none" xmlns="http://www.w3.org/2000/svg">
<rect width="40" height="40" rx="20" fill="black"/>
<path d="M19.0501 20.0139H19.7911C19.8291 19.7999 19.7611 19.6169 19.5241 19.6169C19.2871 19.6169 19.1191 19.7389 19.0501 20.0139ZM14.8731 20.4109L14.8361 20.4049C14.7261 20.3849 14.5321 20.3489 14.3621 20.4649C14.1711 20.5949 14.1171 20.8229 14.3161 20.8999C14.5071 20.9729 14.7891 20.8469 14.8281 20.6479L14.8731 20.4109ZM28.4731 20.3419C28.5351 20.1439 28.5011 19.8959 28.4351 19.8079C28.2521 19.5639 27.8311 19.7569 27.7021 20.2359C27.6181 20.5489 27.8021 20.7859 28.0081 20.7859C28.2291 20.7859 28.3661 20.6099 28.4731 20.3419ZM24.9531 20.4109L24.9161 20.4049C24.8061 20.3849 24.6111 20.3489 24.4421 20.4649C24.2511 20.5949 24.1971 20.8229 24.3961 20.8999C24.5871 20.9729 24.8691 20.8469 24.9071 20.6479L24.9531 20.4109Z" fill="#FEFEFF" fill-opacity="0.8"/>
<path d="M24.081 14.0801C25.6511 14.0801 27.1568 14.7038 28.267 15.814C29.3773 16.9242 30.001 18.43 30.001 20.0001C30.001 21.5702 29.3773 23.076 28.267 24.1862C27.1568 25.2964 25.6511 25.9201 24.081 25.9201C22.7214 25.9231 21.4032 25.4532 20.352 24.5911C21.1416 23.8328 21.7235 22.8845 22.042 21.8371H21.55C21.2437 22.7697 20.7095 23.6111 19.996 24.2851C19.2868 23.6107 18.7566 22.7705 18.453 21.8401H17.961C18.2754 22.8831 18.8509 23.8287 19.633 24.5871C18.586 25.4455 17.2749 25.9164 15.921 25.9201C14.3509 25.9201 12.8451 25.2964 11.7349 24.1862C10.6247 23.076 10.001 21.5702 10.001 20.0001C10.001 18.43 10.6247 16.9242 11.7349 15.814C12.8451 14.7038 14.3509 14.0801 15.921 14.0801C17.331 14.0801 18.616 14.5901 19.633 15.4131C18.8509 16.1715 18.2754 17.117 17.961 18.1601H18.453C18.7566 17.2297 19.2868 16.3895 19.996 15.7151C20.7095 16.3891 21.2437 17.2305 21.55 18.1631H22.042C21.7235 17.1157 21.1416 16.1674 20.352 15.4091C21.4034 14.5467 22.7221 14.0769 24.082 14.0801M26.06 19.1961L25.651 21.3861H26.253L26.438 20.3841C26.606 19.7621 26.865 19.7641 27.017 19.7671H27.04L27.202 19.1971C26.901 19.1971 26.723 19.3041 26.631 19.4121L26.577 19.1961H26.06ZM18.326 18.6401H17.73L17.318 20.7171C17.203 21.3121 17.654 21.3971 17.791 21.3971C17.9457 21.4021 18.0989 21.3648 18.234 21.2891L18.272 20.8471C17.929 20.9001 17.913 20.7471 17.944 20.5791L18.112 19.6931H18.417L18.524 19.2201H18.204L18.326 18.6401ZM19.494 19.1901C18.561 19.1901 18.418 20.0871 18.39 20.2671L18.387 20.2811C18.364 20.4191 18.349 21.3891 19.38 21.3891C19.632 21.3961 19.998 21.3661 20.144 21.2891L20.235 20.8391C20.0129 20.8756 19.7881 20.8934 19.563 20.8921H19.543C19.305 20.8921 18.947 20.8931 19.013 20.4121H20.311C20.381 20.0601 20.541 19.1901 19.494 19.1901ZM17.303 19.2651C17.056 19.1711 16.856 19.1771 16.753 19.1801H16.71C16.609 19.1801 15.913 19.1801 15.805 19.7001C15.721 20.1051 15.869 20.2721 16.011 20.3341C16.161 20.3991 16.268 20.4601 16.359 20.5121C16.4056 20.5401 16.4503 20.5648 16.493 20.5861C16.643 20.6611 16.616 20.9141 16.416 20.9141L16.344 20.9171C16.19 20.9261 15.876 20.9431 15.63 20.8611L15.546 21.3111C15.821 21.3881 16.042 21.3881 16.248 21.3881H16.271C16.456 21.3901 17.108 21.3961 17.202 20.7691C17.251 20.4491 17.111 20.3031 16.996 20.2351C16.8595 20.146 16.7168 20.0668 16.569 19.9981C16.447 19.9441 16.355 19.7381 16.576 19.6781C16.714 19.6621 16.996 19.6621 17.164 19.7081L17.303 19.2651ZM13.798 18.7451H12.82L12.095 20.3491L11.98 18.7451H11.026L10.514 21.3881H11.11L11.476 19.4781L11.636 21.3881H12.202L13.034 19.5241L12.683 21.3881H13.3L13.798 18.7451ZM13.866 19.7311L14.01 19.7131C14.19 19.6901 14.451 19.6561 14.607 19.6621L14.667 19.6631C14.854 19.6671 15.036 19.6711 14.974 19.9671C14.9533 19.9684 14.92 19.9684 14.874 19.9671C14.561 19.9571 13.73 19.9321 13.584 20.7311C13.515 21.1811 13.904 21.4111 14.21 21.3951C14.515 21.3801 14.6 21.3421 14.706 21.2651L14.783 21.3881H15.34L15.577 20.1961C15.638 19.8991 15.737 19.1811 14.737 19.1811L14.641 19.1841C14.479 19.1881 14.281 19.1941 13.958 19.2571L13.866 19.7311ZM23.152 19.2501C23.351 19.2501 23.457 19.2651 23.61 19.3561L24 18.9671C23.847 18.7991 23.671 18.6341 23.183 18.6161C22.77 18.6001 22.063 18.9011 21.839 19.7231C21.533 20.8381 22.205 21.3881 22.824 21.3881C23.152 21.3881 23.351 21.3421 23.549 21.2501L23.373 20.7161C22.763 20.9221 22.327 20.6091 22.427 19.9751C22.51 19.4391 22.953 19.2491 23.152 19.2491M28.604 19.3681C28.524 19.2841 28.432 19.1881 28.222 19.1881H28.168C27.84 19.1841 27.367 19.1791 27.092 20.1191C26.898 20.7821 27.291 21.3871 27.718 21.3871C27.917 21.3791 28.115 21.2951 28.238 21.2111L28.314 21.3871H28.955L29.475 18.6071H28.848L28.688 19.4471C28.6585 19.4221 28.6304 19.3954 28.604 19.3671M23.946 19.7291L24.09 19.7111C24.27 19.6881 24.53 19.6541 24.687 19.6601L24.747 19.6611C24.934 19.6651 25.116 19.6691 25.053 19.9651C25.033 19.9664 24.9996 19.9664 24.953 19.9651C24.641 19.9551 23.81 19.9301 23.663 20.7291C23.595 21.1791 23.984 21.4091 24.29 21.3931C24.595 21.3781 24.679 21.3401 24.786 21.2631L24.863 21.3861H25.42L25.657 20.1941C25.717 19.8971 25.817 19.1791 24.817 19.1791L24.721 19.1821C24.559 19.1861 24.361 19.1921 24.038 19.2551L23.946 19.7291ZM20.733 19.2171L20.328 21.3861H20.924L21.107 20.3931C21.272 19.7831 21.533 19.7871 21.683 19.7891H21.71L21.863 19.2171C21.566 19.2171 21.39 19.3241 21.298 19.4311L21.245 19.2171H20.733Z" fill="#FEFEFF" fill-opacity="0.8"/>
</svg>
