<svg width="14" height="16" viewBox="0 0 14 16" fill="none" xmlns="http://www.w3.org/2000/svg">
<path d="M14 13.0439C13.9075 13.8074 13.867 14.1386 13.5215 14.8828L8.21582 16C8.33778 15.1958 8.50043 14.5752 8.76465 14.2031L14 13.0439ZM6.61035 7.77832L8.19531 7.42773V2.31641C8.78605 1.63976 9.14925 1.33524 9.8623 0.951172V7.05859L14 6.14258C13.9075 6.90567 13.8669 7.23655 13.5215 7.98047L9.8623 8.76953V10.4863L14 9.59277C13.9075 10.3562 13.8669 10.6876 13.5215 11.4316L9.8623 12.2021V12.2188L8.19531 12.5703V9.12891L6.61035 9.4707V11.6396L6.58301 11.6445C6.21835 12.2971 5.70335 13.0811 5.20703 13.707L0 14.7188C0.0466939 14.0353 0.144374 13.6504 0.447266 12.9619L4.94336 11.9668V9.83008L0.776367 10.7305C0.823058 10.0468 0.92065 9.66132 1.22363 8.97266L4.94336 8.14746V1.36523C5.53409 0.688592 5.8973 0.384065 6.61035 0V7.77832Z" fill="#FEFEFF"/>
</svg>
