<svg width="40" height="40" viewBox="0 0 40 40" fill="none" xmlns="http://www.w3.org/2000/svg">
<rect width="40" height="40" rx="20" fill="black"/>
<path d="M28.689 16.8699L30 23.1289H28.498C28.438 22.8669 28.391 22.5929 28.331 22.3309C28.271 22.0689 28.331 22.1999 28.176 22.1999H26.353C26.3334 22.1965 26.3132 22.1973 26.2939 22.2021C26.2746 22.2069 26.2565 22.2158 26.2407 22.228C26.225 22.2402 26.212 22.2556 26.2026 22.2732C26.1932 22.2907 26.1875 22.3101 26.186 22.3299C26.102 22.5699 26.019 22.8079 25.924 23.0339C25.828 23.2599 25.84 23.1409 25.804 23.1409H24.196V22.9979C24.9907 21.1146 25.785 19.2276 26.579 17.3369C26.6258 17.2085 26.7098 17.0969 26.8202 17.0162C26.9305 16.9356 27.0624 16.8895 27.199 16.8839C27.723 16.8599 28.2 16.8719 28.689 16.8719M27.569 18.6249L26.722 20.9019H28.057L27.569 18.6249ZM14.112 21.1259V20.9829C14.589 19.6599 15.077 18.3369 15.542 17.0139C15.542 16.9069 15.638 16.8589 15.757 16.8589H17.342V17.0139L14.875 22.9739C14.8633 23.0233 14.8335 23.0666 14.7914 23.0951C14.7494 23.1236 14.6982 23.1353 14.648 23.1279H13.266C13.146 23.1279 13.099 23.1279 13.063 22.9729C12.623 21.2569 12.169 19.5409 11.728 17.8129C11.7065 17.7237 11.6509 17.6465 11.573 17.5979C11.1131 17.3413 10.6257 17.1373 10.12 16.9899C10.12 16.9899 10.036 16.9299 10 16.9069C10.0508 16.8934 10.1042 16.8934 10.155 16.9069H12.539C12.6386 16.8918 12.7402 16.8979 12.8373 16.9247C12.9344 16.9516 13.0247 16.9987 13.1023 17.0629C13.1799 17.1271 13.243 17.207 13.2876 17.2973C13.3322 17.3876 13.3572 17.4863 13.361 17.5869L14.041 21.0779C14.0371 21.1058 14.0371 21.1341 14.041 21.1619L14.112 21.1259ZM19.666 22.8899L19.905 21.4949L20.072 21.5909C20.6807 21.9055 21.3787 22.0022 22.05 21.8649C22.1783 21.854 22.3 21.8033 22.3982 21.7199C22.4965 21.6366 22.5663 21.5248 22.598 21.3999C22.6108 21.2754 22.583 21.15 22.5186 21.0426C22.4543 20.9351 22.3569 20.8514 22.241 20.8039C22.002 20.6489 21.741 20.5299 21.514 20.3749C21.22 20.2111 20.9479 20.0109 20.704 19.7789C20.4567 19.483 20.3211 19.1096 20.3211 18.7239C20.3211 18.3383 20.4567 17.9649 20.704 17.6689C21.0629 17.277 21.5322 17.0029 22.05 16.8829C22.8389 16.6853 23.6687 16.7267 24.434 17.0019H24.494L24.267 18.2889C23.9662 18.1971 23.6595 18.1256 23.349 18.0749C23.0395 18.0509 22.7285 18.0509 22.419 18.0749C22.3073 18.0974 22.2043 18.1511 22.122 18.2299C22.0823 18.2637 22.0505 18.3057 22.0287 18.353C22.0068 18.4004 21.9955 18.4518 21.9955 18.5039C21.9955 18.556 22.0068 18.6075 22.0287 18.6548C22.0505 18.7021 22.0823 18.7441 22.122 18.7779C22.2647 18.9093 22.4193 19.0246 22.586 19.1239C22.896 19.3139 23.218 19.4689 23.516 19.6719C23.7625 19.8226 23.967 20.0332 24.1103 20.284C24.2537 20.5349 24.3314 20.8179 24.3362 21.1067C24.341 21.3956 24.2727 21.681 24.1377 21.9365C24.0027 22.1919 23.8054 22.4091 23.564 22.5679C23.0889 22.9361 22.5178 23.1597 21.919 23.2119C21.1529 23.295 20.3782 23.1843 19.666 22.8899ZM17.02 23.1279L18.045 16.8709H19.678L18.653 23.1279H17.02Z" fill="#FEFEFF" fill-opacity="0.8"/>
</svg>
